<svg xmlns="http://www.w3.org/2000/svg" xmlns:xlink="http://www.w3.org/1999/xlink" fill="none" version="1.1" width="205.0229949951172" height="1097.0999755859375" viewBox="0 0 205.0229949951172 1097.0999755859375"><defs><clipPath id="master_svg0_45_66"><rect x="0" y="0" width="205.0229949951172" height="1097.0999755859375" rx="0"/></clipPath></defs><g clip-path="url(#master_svg0_45_66)"><g><ellipse cx="13.449999809265137" cy="13.449999809265137" rx="12.949999809265137" ry="12.949999809265137" fill="#EFD8EC" fill-opacity="1" style="mix-blend-mode:passthrough"/></g><g><path d="M13.45,1C20.325945,1.0000002,25.9,6.5740542,25.9,13.45C25.9,20.325945,20.325945,25.9,13.45,25.9C6.5740542,25.9,1.0000002,20.325945,1,13.45C1.0005541,6.5742831,6.5742841,1.000553,13.45,1ZM13.45,0C6.0217686,0,-0.0000016033649,6.0217695,-0.0000016033649,13.45C-0.0000016033649,20.878231,6.0217676,26.9,13.449998,26.9C20.878229,26.9,26.899998,20.878231,26.9,13.45C26.893934,6.0242839,20.875715,0.0060660499,13.45,0Z" fill="#333333" fill-opacity="1" style="mix-blend-mode:passthrough"/></g><g><g><path d="M131.12699932373047,217.00399827685547C123.97490692373047,217.00399827685547,118.17699432373047,211.20608527685548,118.17699432373047,204.05399327685546C118.17699432373047,196.90190887685546,123.97490692373047,191.10399627685547,131.12699932373047,191.10399627685547C138.27909132373048,191.10399627685547,144.07700332373048,196.90190887685546,144.07700332373048,204.05400127685547C144.06818432373046,211.20243827685547,138.27544432373048,216.99517827685548,131.12699932373047,217.00399827685547Z" fill="#F4C8C6" fill-opacity="1" style="mix-blend-mode:passthrough"/></g><g><path d="M131.12699932373047,191.61399841308594C138.00295232373048,191.61400601308594,143.57700332373048,197.18805691308594,143.57700332373048,204.06400341308594C143.57700332373048,210.93995641308595,138.00295232373048,216.51400741308595,131.12699932373047,216.51400741308595C124.25105282373048,216.51400741308595,118.67700192373047,210.93994141308593,118.67700192373047,204.06399541308593C118.67755122373048,197.18827821308594,124.25128172373047,191.61454771308593,131.12699932373047,191.61399841308594ZM131.12699932373047,190.61399841308594C123.69876862373047,190.61399841308594,117.67699432373047,196.63576511308594,117.67699432373047,204.06399541308593C117.67699432373047,211.49221841308594,123.69876102373047,217.51399241308593,131.12699132373046,217.51399241308593C138.55522932373046,217.51399241308593,144.57698832373046,211.49223341308593,144.57700332373048,204.06399541308593C144.56765032373048,196.63964841308595,138.55135332373047,190.62336730958594,131.12699932373047,190.61399841308594Z" fill="#333333" fill-opacity="1" style="mix-blend-mode:passthrough"/></g></g><g><g><path d="M61.81999630249024,541.6409382792968C54.66790390249024,541.6409382792968,48.869991302490234,535.8430252792969,48.869991302490234,528.6909332792969C48.869991302490234,521.5388488792969,54.66790390249024,515.7409362792969,61.81999630249024,515.7409362792969C68.97208830249023,515.7409362792969,74.77000030249023,521.5388488792969,74.77000030249023,528.6909412792969C74.76118130249023,535.8393782792969,68.96844130249023,541.6321182792968,61.81999630249024,541.6409382792968Z" fill="#F8D082" fill-opacity="1" style="mix-blend-mode:passthrough"/></g><g><path d="M61.819999931884766,516.2509765625C68.69594593188476,516.2509765625,74.27000393188476,521.8250427625,74.27000393188476,528.7009885625C74.26999693188476,535.5769345625,68.69594593188476,541.1510005625,61.819999931884766,541.1510005625C54.94405363188476,541.1510005625,49.37000273188477,535.5769345625,49.369998931884766,528.7009885625C49.37052153188476,521.8252563625,54.94427113188477,516.2514953625,61.819999931884766,516.2509765625ZM61.819999931884766,515.2509765625C54.39176943188477,515.2509765625,48.369998931884766,521.2727661625,48.369998931884766,528.7009885625C48.369998931884766,536.1292115625,54.39176943188477,542.1509705625,61.81999593188476,542.1509705625C69.24822993188477,542.1509705625,75.26999693188476,536.1292115625,75.26999693188476,528.7009885625C75.26063493188477,521.2766418625,69.24434693188476,515.260345459,61.819999931884766,515.2509765625Z" fill="#333333" fill-opacity="1" style="mix-blend-mode:passthrough"/></g></g><g><g><ellipse cx="150.06399822235107" cy="848.5460178852081" rx="12.949999809265137" ry="12.949999809265137" fill="#E6F2E4" fill-opacity="1" style="mix-blend-mode:passthrough"/></g><g><path d="M150.06400341308594,836.1060180488281C156.93994941308594,836.1060485488281,162.51400041308594,841.6801147488281,162.51400041308594,848.5560605488281C162.51400041308594,855.4319765488282,156.93994941308594,861.0060115488282,150.06400341308594,861.0060115488282C143.18805691308594,861.0060115488282,137.61400601308594,855.4319765488282,137.61400601308594,848.5559995488281C137.61452481308595,841.6802673488281,143.18827061308593,836.1065063488281,150.06400341308594,836.1060180488281ZM150.06400341308594,835.1059875488281C142.63576511308594,835.1059875488281,136.61399841308594,841.1277771488282,136.61399841308594,848.5559995488281C136.61399841308594,855.9842225488281,142.63576511308594,862.0059505488281,150.06400341308594,862.0059505488281C157.49222541308595,862.0059505488281,163.51400041308594,855.9842225488281,163.51400041308594,848.5559995488281C163.50466141308593,841.1316223488282,157.48835041308593,835.1153259277281,150.06400341308594,835.1059875488281Z" fill="#333333" fill-opacity="1" style="mix-blend-mode:passthrough"/></g></g><g><g><ellipse cx="119.79300212860107" cy="1083.6399509906769" rx="12.949999809265137" ry="12.949999809265137" fill="#EFD8EC" fill-opacity="1" style="mix-blend-mode:passthrough"/></g><g><path d="M119.79299968994141,1071.199951171875C126.6689606899414,1071.200012171875,132.24300368994142,1076.774047871875,132.24300368994142,1083.649963171875C132.24300368994142,1090.525940171875,126.6689526899414,1096.099975171875,119.79300668994141,1096.099975171875C112.91706088994141,1096.099975171875,107.34300228994141,1090.525940171875,107.34300228994141,1083.649963171875C107.34355158994141,1076.774230971875,112.91728208994141,1071.200500471875,119.79299968994141,1071.199951171875ZM119.79299968994141,1070.199951171875C112.3647765899414,1070.199890136719,106.3429946899414,1076.221679671875,106.3429946899414,1083.649902171875C106.3429946899414,1091.078125171875,112.36476898994141,1097.099914171875,119.79299968994141,1097.099914171875C127.22122968994141,1097.099914171875,133.2429966899414,1091.078186171875,133.2429966899414,1083.649963171875C133.2336506899414,1076.225585971875,127.2173536899414,1070.209289550775,119.79299968994141,1070.199951171875Z" fill="#333333" fill-opacity="1" style="mix-blend-mode:passthrough"/></g></g><g><g><path d="M191.57299083984375,445.75096940722653C184.42089843984374,445.75096940722653,178.62298583984375,439.95305640722654,178.62298583984375,432.80096440722656C178.62298583984375,425.6488800072266,184.42089843984374,419.85096740722656,191.57299083984375,419.85096740722656C198.72508283984376,419.85096740722656,204.52299483984376,425.6488800072266,204.52299483984376,432.80097240722654C204.51417583984374,439.94940940722654,198.72143583984376,445.7421494072266,191.57299083984375,445.75096940722653Z" fill="#DDE9F2" fill-opacity="1" style="mix-blend-mode:passthrough"/></g><g><path d="M191.57299783984374,420.3609924316406C198.44894383984376,420.3609924316406,204.02300983984375,425.9350433316406,204.02300983984375,432.8109894316406C204.02300983984375,439.6869354316406,198.44895983984375,445.26100143164064,191.57301283984376,445.26100143164064C184.69706723984376,445.26100143164064,179.12301633984376,439.6869354316406,179.12300113984375,432.8109894316406C179.12355043984374,425.93525693164065,184.69728083984376,420.3615265316406,191.57299783984374,420.3609924316406ZM191.57299783984374,419.3609924316406C184.14476013984375,419.3609771728516,178.12298583984375,425.38276673164063,178.12298583984375,432.8109894316406C178.12298583984375,440.2392124316406,184.14476013984375,446.2609714316406,191.57298283984375,446.2609714316406C199.00122083984374,446.2609714316406,205.02299483984376,440.2392124316406,205.02299483984376,432.8109894316406C205.01361083984375,425.3866424316406,198.99732983984376,419.3703460693406,191.57299783984374,419.3609924316406Z" fill="#333333" fill-opacity="1" style="mix-blend-mode:passthrough"/></g></g><g><path d="M98.79729104785156,332.5107990253906L55.986792047851566,279.4533415253906C54.25273604785156,277.30422949539064,51.10479734785156,276.96778345539065,48.95571234785156,278.70187232539064L43.688151347851566,282.95224852539064C41.539113997851565,284.6862993253906,41.20267629785156,287.8341520253906,42.93669364785156,289.9832180253906L85.74719204785157,343.04068002539066C87.48124704785155,345.1897890253906,90.62918504785156,345.52623002539065,92.77827104785156,343.7921450253906L98.04583404785157,339.54177102539063C100.19487004785157,337.8077200253906,100.53130704785156,334.6598620253906,98.79729104785156,332.5107990253906Z" fill-rule="evenodd" fill="#CAE1C4" fill-opacity="1" style="mix-blend-mode:passthrough"/></g><g><path d="M134.98623641796877,15.994793872656249L131.06996941796876,10.48540977265625C129.47003941796874,8.23463440265625,126.34840741796876,7.70706224265625,124.09767941796875,9.30705523265625L68.53812651796875,48.80308497265625C66.28748607796875,50.40301497265625,65.75993895796876,53.52449397265625,67.35980415796875,55.77518097265625L71.27606251796875,61.28456497265625C72.87599181796875,63.53534297265625,75.99762721796876,64.06291597265624,78.24835641796875,62.46292097265625L133.80791441796873,22.96689197265625C136.05855541796876,21.36696197265625,136.58610541796875,18.24547957265625,134.98623641796877,15.994793872656249Z" fill-rule="evenodd" fill="#DDE9F2" fill-opacity="1" style="mix-blend-mode:passthrough"/></g><g><path d="M157.60894411328124,655.5884565859375L151.89389011328126,651.9640765159374C149.56172911328125,650.4850621259375,146.47214911328126,651.1768298149375,144.99335111328125,653.5091304859375L108.48819041328125,711.0836680859375C107.00958919328124,713.4156650859375,107.70124578478125,716.5047450859375,110.03310111328125,717.9835660859375L115.74815371328125,721.6079480859376C118.08031611328126,723.0869600859376,121.16989911328125,722.3951870859376,122.64869511328125,720.0628890859375L159.15385411328126,662.4883520859375C160.63245411328126,660.1563586859374,159.94080011328126,657.0672759859375,157.60894411328124,655.5884565859375Z" fill-rule="evenodd" fill="#EFD8EC" fill-opacity="1" style="mix-blend-mode:passthrough"/></g><g><path d="M106.9114605234375,1009.0245822539063L58.7025395234375,960.8156323539063C56.7499165234375,958.8630075439063,53.5840854234375,958.8630096939063,51.6314649234375,960.8156366539063L46.8525247234375,965.5945920539062C44.8999083034375,967.5472145539062,44.8999114034375,970.7130352539062,46.8525295234375,972.6656532539063L95.06147052343749,1020.8745652539062C97.0140915234375,1022.8271862539062,100.17991252343751,1022.8271942539062,102.1325345234375,1020.8745732539062L106.9114605234375,1016.0956532539062C108.8640825234375,1014.1430322539062,108.8640825234375,1010.9772032539063,106.9114605234375,1009.0245822539063Z" fill-rule="evenodd" fill="#F7BA84" fill-opacity="1" style="mix-blend-mode:passthrough"/></g></g></svg>